<svg xmlns="http://www.w3.org/2000/svg" viewBox="0 0 24 24" width="20" height="20">
  <!-- Black Circle Background -->
  <circle cx="12" cy="12" r="12" fill="#000000" />
  
  <!-- White GitHub Logo -->
  <path d="M12 2C6.476 2 2 6.485 2 12.02c0 4.427 2.865 8.183 6.839 9.506.5.092.682-.217.682-.483 0-.237-.009-.868-.014-1.704-2.782.605-3.369-1.343-3.369-1.343-.454-1.156-1.11-1.463-1.11-1.463-.909-.62.069-.608.069-.608 1.003.071 1.531 1.032 1.531 1.032.892 1.529 2.341 1.088 2.909.832.092-.648.35-1.088.636-1.339-2.22-.255-4.555-1.114-4.555-4.952 0-1.093.39-1.99 1.029-2.69-.103-.254-.446-1.274.099-2.653 0 0 .84-.27 2.75 1.027A9.594 9.594 0 0112 6.844c.85.004 1.706.116 2.506.338 1.909-1.296 2.749-1.027 2.749-1.027.546 1.38.202 2.399.1 2.653.64.7 1.029 1.597 1.029 2.69 0 3.847-2.338 4.697-4.567 4.946.361.31.682.922.682 1.859 0 1.342-.013 2.423-.013 2.75 0 .268.18.579.688.481A10.017 10.017 0 0022 12.02C22 6.485 17.523 2 12 2z" fill="#FFFFFF"/>
</svg>
